<?xml version="1.0" encoding="utf-8"?>
<!-- Generator: Adobe Illustrator 18.1.0, SVG Export Plug-In . SVG Version: 6.00 Build 0)  -->
<svg version="1.1" id="Layer_1" xmlns="http://www.w3.org/2000/svg" xmlns:xlink="http://www.w3.org/1999/xlink" x="0px" y="0px" width='150' height='150'
	 viewBox="0 0 100 100" enable-background="new 0 0 100 100" xml:space="preserve">
<polygon fill="#F2F1ED" points="16.6,0.3 16.6,99.9 101.4,99.9 "/>
<linearGradient id="SVGID_1_" gradientUnits="userSpaceOnUse" x1="-6.9098" y1="75.0325" x2="36.7374" y2="52.0603">
	<stop  offset="0" style="stop-color:#982746"/>
	<stop  offset="1" style="stop-color:#A64D5C"/>
</linearGradient>
<path fill="url(#SVGID_1_)" d="M18.4,38.8c0,0,0.3-0.5-0.7-2.2c-3.4-5-3.2-7.5-2.8-10.2c0.1-2.4,4.3-7.9,5.1-9
	c3.1-3.4,2.5-9,1.7-10.6c-2.7-5-6.7-6.2-6.7-6.2c2.2,3.1,1.7,5.2,0.8,7.7c-0.9,2.5-4.7,6-7.3,10.4c-2.6,4.4-2.8,9.1-2.3,11.6
	C8.4,38.8,18.4,38.8,18.4,38.8z M19,27.4c-0.3,1.3-2.1,7.7,5.6,11.6c0.1-0.4-1.7-5,1.9-8.1c2.1-2.3,6.1-5.6,7.6-9.1
	c0.9-2.5,0.1-9.4-8.3-14.3C27.7,19.8,22.5,19.8,19,27.4z M27.9,34.6c-1.9,3.6,2,3.6,2,3.6c-0.4-3.9,4.4-4.7,5.7-8.6
	C36.2,28.3,36,25,36,25C32.5,30.7,30.4,30.6,27.9,34.6z M41.4,41.8H1.4v4.4h40.1V41.8z M38.7,53.6v-5H4.1v5H38.7z M41.2,56.1H1.8
	v3.7h39.4V56.1z M7.1,62.1l5,37.8h16.4l6.1-37.8H7.1z M14.9,95l-1.4-27.4h-3.1v-2.1h5.1L17,95H14.9z M22.5,95h-2.1V67.6h-3v-2.1h5.1
	V95z M27.2,95H25l2.3-27.4h-2.7v-2.1h5.1L27.2,95z M35.7,73.7l-0.6,4.1c9,1.7,15.8,9.6,15.8,19c0,1-0.1,2-0.3,3h4.2
	c0.1-1,0.2-2,0.2-3C55.1,85.3,46.7,75.7,35.7,73.7z M32.7,93.5l-1,6.3h1.8c1-0.6,1.6-1.7,1.6-3C35.1,95.3,34.1,94,32.7,93.5z
	 M39,86.2c-0.7-0.5-1.2-0.3-1.2-0.3l-1.2,2.4c0.1,0.4,0.4,0.7,0.4,0.7s0.5,0.2,0.8,0.2l1.8-2C39.7,87.2,39.7,86.7,39,86.2z
	 M43.8,93.6l-2.6,0.8c-0.2,0.3-0.2,0.8-0.2,0.8s0.2,0.5,0.5,0.7l2.7-0.1c0,0,0.3-0.4,0.2-1.2C44.3,93.8,43.8,93.6,43.8,93.6z
	 M34.7,80.2l-1.6,10.6c2.3,0.6,4.2,2.5,4.6,5c0.3,1.5,0,2.9-0.6,4.1h11.1c0.3-1.9,0.4-4,0-6C46.9,86.7,41.4,81.5,34.7,80.2z
	 M36.3,90.1c0,0-0.9-0.8-1-1.6l1.8-4.1c0,0,1.1-0.3,2.7,0.7c1.6,1.1,1.6,2.2,1.6,2.2l-3.2,3.2C37.3,90.7,36.3,90.1,36.3,90.1z
	 M45.3,97.1l-4.5,0c-0.7-0.5-1.1-1.6-1.1-1.6s-0.1-1.2,0.4-1.9l4.2-1.6c0,0,1,0.5,1.4,2.4C46.1,96.3,45.3,97.1,45.3,97.1z
	 M62.8,94.2c-0.1-1.5-0.3-2.9-0.6-4.3l4.4-2.7l-1-3l-5,0.4c-0.6-1.3-1.3-2.7-2.1-3.9l3.4-3.9L60,74.2l-4.8,2c-0.5-0.6-1-1-1.5-1.6
	c-0.5-0.5-1-1-1.6-1.5l2-4.8l-2.5-1.8l-3.9,3.4c-1.3-0.8-2.6-1.5-3.9-2l0.4-5.1l-2.9-1l-2.7,4.4c-0.6-0.1-1.1-0.2-1.7-0.3l-0.8,5.3
	C48.3,73.3,57.6,84,57.6,96.9c0,1-0.1,2-0.2,3h5.3c0-0.1,0-0.1,0-0.2l5.1-1.2v-3.2L62.8,94.2z"/>
</svg>
